<?xml version="1.0" encoding="UTF-8"?>
<svg id="Layer_2" data-name="Layer 2" xmlns="http://www.w3.org/2000/svg" viewBox="0 0 1086.2 336.43">
  <defs>
    <style>
      .cls-1 {
        fill: #003933;
        stroke-width: 0px;
      }
    </style>
  </defs>
  <g id="_Ñëîé_1" data-name="Ñëîé 1">
    <path class="cls-1" d="M0,137.78h80.23C94.62,61.42,161.02,0,245.68,0c96.28,0,163.79,68.62,163.79,172.09,0,11.07-1.11,19.92-2.21,27.67H148.3c12.17,47.03,50.91,74.7,97.39,74.7,39.84,0,69.72-15.49,93.52-42.6l47.59,43.71c-31.54,35.97-78.57,60.87-141.1,60.87-84.66,0-151.06-60.31-165.45-136.67H0v-61.98ZM340.86,137.78c-3.32-19.36-12.17-37.07-24.9-49.8-16.6-16.6-40.95-27.12-70.27-27.12s-53.12,9.96-70.83,27.67c-12.17,12.17-22.13,28.77-27.11,49.25h193.12ZM457.61,2.21h69.72v265.6h126.16v66.4h-125.06c-45.93,0-70.83-24.9-70.83-70.83V2.21ZM666.77,168.21C666.77,78.02,740.36,0,837.76,0c86.32,0,153.82,60.87,168.21,137.78h80.23v61.98h-80.23c-14.94,76.36-82.45,136.67-168.21,136.67-97.94,0-170.98-77.47-170.98-168.21ZM837.76,271.14c58.1,0,101.26-44.27,101.26-102.37s-44.26-103.48-101.26-103.48-101.26,44.27-101.26,102.92,44.27,102.92,101.26,102.92Z"/>
  </g>
</svg>