<?xml version="1.0" encoding="UTF-8"?>
<svg id="Layer_2" data-name="Layer 2" xmlns="http://www.w3.org/2000/svg" viewBox="0 0 1043.49 639.77">
  <defs>
    <style>
      .cls-1 {
        fill: #e30716;
      }

      .cls-1, .cls-2, .cls-3 {
        stroke-width: 0px;
      }

      .cls-2 {
        fill: #ea6109;
      }

      .cls-3 {
        fill: #f59f04;
      }
    </style>
  </defs>
  <g id="_Ñëîé_1" data-name="Ñëîé 1">
    <g>
      <path class="cls-3" d="M1043.49,319.88c0,176.67-143.22,319.89-319.89,319.89-76.53,0-146.8-26.88-201.85-71.72,72.02-58.66,118.02-148.04,118.02-248.17s-46-189.5-118.02-248.15C576.81,26.89,647.07,0,723.6,0c176.67,0,319.89,143.22,319.89,319.88Z"/>
      <path class="cls-2" d="M639.77,319.88c0,100.13-46,189.51-118.02,248.17-72.03-58.65-118.03-148.04-118.03-248.17s46-189.51,118.03-248.15c72.02,58.65,118.02,148.03,118.02,248.15Z"/>
      <path class="cls-1" d="M521.75,568.05c-55.06,44.84-125.33,71.72-201.87,71.72C143.22,639.77,0,496.56,0,319.88S143.22,0,319.88,0c76.54,0,146.81,26.89,201.87,71.73-72.03,58.64-118.03,148.02-118.03,248.15s46,189.52,118.03,248.17Z"/>
    </g>
  </g>
</svg>