<?xml version="1.0" encoding="UTF-8"?>
<svg id="Layer_2" data-name="Layer 2" xmlns="http://www.w3.org/2000/svg" viewBox="0 0 1004.43 326.96">
  <defs>
    <style>
      .cls-1 {
        fill: #fba902;
      }

      .cls-1, .cls-2 {
        stroke-width: 0px;
      }

      .cls-2 {
        fill: #144ca6;
      }
    </style>
  </defs>
  <g id="_Ñëîé_1" data-name="Ñëîé 1">
    <g>
      <path class="cls-2" d="M1004.43,321.73c-3.14.14-5.96.39-8.78.39-18.72-.03-37.44-.11-56.16-.18-.18,0-.36.01-.55,0-3.31-.01-8.26,1.3-9.57-.33-2.48-3.06-3.17-7.74-4.04-11.87-2.11-10.08-3.66-20.28-6.03-30.29-.45-1.88-3.65-4.34-5.66-4.42-12.61-.54-25.25-.6-37.88-.59-19.23.02-38.47.12-57.7.54-1.87.04-4.67,2.17-5.36,3.97-4.81,12.58-9.35,25.27-13.6,38.05-1.53,4.62-3.63,6.25-8.69,5.52-5.89-.85-11.96-.57-17.95-.57-19.27-.01-38.53.08-57.8.1-1.02,0-2.04-.34-3.63-.63,3.69-8.82,7.23-17.26,10.74-25.71,4.69-11.29,9.3-22.62,14.02-33.9,5.43-12.99,10.94-25.94,16.42-38.91,5.34-12.61,10.72-25.21,16.03-37.84,5.94-14.12,11.83-28.26,17.73-42.39,6.86-16.44,13.65-32.91,20.59-49.31,8.4-19.84,16.83-39.67,25.49-59.4,2.13-4.86,4.85-9.55,7.88-13.91,6.7-9.63,16.93-13.1,27.9-13.35,23.07-.51,46.16-.22,69.24-.23.32,0,.64.3,1.41.69,21.86,104.28,43.78,208.86,65.94,314.58ZM881.56,94.04c-1.95,2.74-3.2,3.89-3.72,5.31-7,19.25-13.85,38.56-20.85,57.81-5.71,15.72-11.48,31.43-17.41,47.07-1.37,3.61-2.03,5.66,3.22,5.61,19.26-.17,38.52-.05,57.78.06,3.71.02,4.81-1.11,3.83-4.92-1.85-7.16-3.23-14.45-4.77-21.69-3.26-15.38-6.57-30.75-9.71-46.16-1.76-8.62-3.16-17.31-4.81-25.96-1-5.23-2.16-10.42-3.57-17.13Z"/>
      <path class="cls-2" d="M717.25,81.9c-6.21-2.39-12.27-4.6-18.23-7.04-15.72-6.43-32.13-8.15-48.95-7.79-9.45.2-18.79.27-27.71,4.14-8.36,3.63-15.14,8.79-19.21,17.15-2.27,4.67.67,15.98,6.41,20.1,9.22,6.61,18.81,12.77,28.58,18.54,12.11,7.15,24.9,13.19,36.78,20.67,14.04,8.85,25.53,20.33,33.69,35.21,8.3,15.14,9.31,31.07,7.54,47.58-2.85,26.58-15.03,47.88-35.67,64.9-14.01,11.55-30.01,19.29-46.97,24.16-21.08,6.05-43,8.14-65.1,7.23-19.94-.83-39.66-2.91-58.91-8.4-7.76-2.21-15.5-4.49-23.14-7.08-1.09-.37-2.36-2.76-2.17-4,3.17-20.93,6.62-41.81,9.87-62.72.71-4.59,1.92-5.93,6.65-3.39,19.63,10.55,40.71,16.35,62.88,18.71,16.3,1.73,32.18.97,47.62-4.87,8.29-3.14,14.45-8.69,18.69-16.46,2.79-5.12,1.12-17.18-3.19-22.44-6.3-7.7-14.51-12.86-23.13-17.51-17.78-9.58-36.63-17.4-52.39-30.37-14-11.53-26.25-24.8-30.9-42.85-2.22-8.62-3.08-17.98-2.46-26.85,1.64-23.32,10.95-43.5,27.95-59.85,13.24-12.72,28.64-21.88,46.01-27.82,23.55-8.07,47.72-11.67,72.62-10.68,15.41.62,30.39,3.62,45.23,7.53,5.22,1.37,10.36,3.01,15.53,4.54,3.01.89,3.87,2.14,3.21,5.87-3.27,18.52-5.84,37.16-8.77,55.74-.42,2.63-1.48,5.15-2.34,8.06Z"/>
      <path class="cls-2" d="M192.51,173.41c3.26,14.25,6.52,28.49,10.11,44.19,2.16-3.43,4.26-5.79,5.28-8.55,8.74-23.65,17.28-47.37,25.89-71.07,5.7-15.7,11.36-31.41,17.13-47.08,6.98-18.95,14.07-37.87,21.11-56.8,2.96-7.97,5.78-16.01,9.01-23.87.66-1.62,2.88-3.69,4.38-3.7,27.08-.14,54.16,0,81.25.12.51,0,1.03.27,2.18.6-3.47,8.63-6.88,17.16-10.32,25.68-4.58,11.32-9.12,22.66-13.8,33.93-4.08,9.83-8.66,19.46-12.4,29.41-4.26,11.33-8.99,22.45-13.49,33.68-7.73,19.28-15.72,38.46-23.57,57.69-8.2,20.06-16.29,40.16-24.57,60.18-5.13,12.41-10.65,24.67-15.78,37.08-4.61,11.16-8.8,22.49-13.55,33.58-.66,1.55-3.4,3.11-5.2,3.14-25.81.33-51.62.32-77.42.62-3.67.04-5.22-1.36-6.05-4.63-4.25-16.62-8.5-33.24-12.95-49.8-2.6-9.66-5.75-19.18-8.32-28.85-2.16-8.15-3.76-16.45-5.77-24.65-2.13-8.69-4.41-17.34-6.7-25.98-4.51-17.04-9.04-34.08-13.63-51.11-5.51-20.42-11.12-40.82-16.62-61.25-2.2-8.17-4.26-16.39-6.38-24.58,1.28-.25,2.89-1.11,3.78-.63,4.07,2.19,8.11,4.51,11.84,7.22,7.63,5.56,15.12,11.31,22.53,17.16,3.37,2.66,6.63,5.54,9.58,8.67,7.67,8.15,14.89,16.75,22.76,24.7,10.61,10.72,18.61,23.2,25.59,36.39,4.96,9.37,9.43,18.99,14.12,28.5Z"/>
      <path class="cls-2" d="M350.98,320.75c16.87-104.27,33.8-208.93,50.79-313.92h82.1c-1.13,7.11-2.24,13.92-3.31,20.75-1.81,11.55-3.53,23.11-5.42,34.65-2.66,16.25-5.5,32.47-8.16,48.72-2.6,15.88-5,31.79-7.64,47.66-3.34,20.11-6.86,40.2-10.26,60.31-1.9,11.22-3.83,22.44-5.52,33.69-1.77,11.76-3.14,23.58-4.93,35.34-1.54,10.1-3.28,20.17-5.29,30.19-.3,1.48-2.58,3.66-3.96,3.67-25.44.18-50.88.09-76.32.03-.31,0-.63-.31-2.06-1.07Z"/>
      <path class="cls-1" d="M192.51,173.41c-4.69-9.51-9.17-19.13-14.12-28.5-6.98-13.19-14.97-25.67-25.59-36.39-7.87-7.95-15.08-16.55-22.76-24.7-2.94-3.13-6.2-6-9.58-8.67-7.41-5.85-14.9-11.6-22.53-17.16-3.73-2.72-7.77-5.04-11.84-7.22-.89-.48-2.5.39-3.78.63-2.36-2.43-4.35-5.47-7.16-7.17-6.21-3.76-13.49-6.01-19.11-10.44-6.89-5.43-15.25-6.86-22.75-10.47-6.49-3.12-13.94-4.23-20.92-6.35-3.44-1.05-6.9-2.16-10.13-3.7C1.09,12.72-.18,10.66.02,9.56c.21-1.14,2.02-2.33,3.38-2.83,1.47-.54,3.22-.38,4.85-.38,39.97.05,79.94-.15,119.91.41,7.29.1,15.44,1.84,21.59,5.51,8.04,4.79,13.84,12.57,15.75,22.57,2.12,11.07,4.95,22.01,7.17,33.06,3.71,18.44,7.25,36.91,10.72,55.4,2.26,12.04,4.25,24.12,6.41,36.18.83,4.66,1.8,9.29,2.71,13.93Z"/>
    </g>
  </g>
</svg>